<svg width="300" height="300" viewBox="0 0 300 300" fill="none" xmlns="http://www.w3.org/2000/svg">
  <!-- Background -->
  <rect width="300" height="300" fill="#1E1E1E"/>
  
  <!-- Gradient overlay -->
  <rect width="300" height="300" fill="url(#paint0_radial)"/>
  
  <!-- Abstract shapes -->
  <circle cx="120" cy="150" r="80" fill="#9333EA" fill-opacity="0.1"/>
  <circle cx="180" cy="200" r="60" fill="#1DB954" fill-opacity="0.1"/>
  
  <!-- Person silhouette -->
  <circle cx="150" cy="100" r="50" fill="#333333"/>
  <path d="M100 230C100 196.863 126.863 170 160 170H180C213.137 170 240 196.863 240 230V300H100V230Z" fill="#333333"/>
  
  <!-- Music elements -->
  <rect x="120" y="80" width="4" height="30" rx="2" fill="#9333EA"/>
  <rect x="130" y="70" width="4" height="40" rx="2" fill="#9333EA"/>
  <rect x="140" y="75" width="4" height="35" rx="2" fill="#9333EA"/>
  <rect x="150" y="65" width="4" height="45" rx="2" fill="#9333EA"/>
  <rect x="160" y="80" width="4" height="30" rx="2" fill="#9333EA"/>
  <rect x="170" y="70" width="4" height="40" rx="2" fill="#9333EA"/>
  
  <!-- Defs -->
  <defs>
    <radialGradient id="paint0_radial" cx="0" cy="0" r="1" gradientUnits="userSpaceOnUse" gradientTransform="translate(150 150) rotate(90) scale(150)">
      <stop stop-color="#9333EA" stop-opacity="0.2"/>
      <stop offset="1" stop-color="#000000" stop-opacity="0"/>
    </radialGradient>
  </defs>
</svg> 