<svg xmlns="http://www.w3.org/2000/svg" viewBox="0 0 24 24" fill="#00A8E1">
  <path d="M.045 18.02c.072-.116.187-.124.348-.022 3.636 2.11 7.594 3.166 11.87 3.166 2.852 0 5.668-.533 8.447-1.595l.315-.14c.138-.06.234-.1.293-.13.226-.088.39-.046.525.13.12.174.09.336-.12.48-.256.19-.6.41-1.006.654-1.244.743-2.64 1.316-4.185 1.726a17.617 17.617 0 01-10.951-.577 17.88 17.88 0 01-5.43-3.35c-.1-.074-.151-.15-.151-.22 0-.047.021-.09.051-.13zm6.565-6.218c0-1.005.247-1.863.743-2.577.495-.71 1.17-1.25 2.04-1.615.796-.335 1.756-.575 2.912-.72.39-.046 1.033-.103 1.92-.174v-.37c0-.93-.105-1.558-.3-1.875-.302-.43-.78-.65-1.44-.65h-.182c-.48.046-.896.196-1.246.45-.35.256-.575.586-.66.993-.06.26-.206.4-.435.42l-2.52-.315c-.248-.06-.372-.18-.372-.39 0-.046.007-.09.022-.15.247-1.29.855-2.25 1.82-2.88.976-.616 2.1-.975 3.39-1.05h.54c1.65 0 2.957.434 3.888 1.29.135.15.27.3.405.48.12.165.224.314.283.45.075.134.15.33.195.57.06.254.105.42.135.51.03.09.062.26.076.51.015.24.03.39.036.45.015.046.03.15.037.27l.03.33c.03.39.036.78.036 1.17v4.365c0 .33.06.63.165.87.105.274.24.495.435.685.195.19.315.394.345.63.015.076.015.15 0 .224-.06.21-.24.374-.54.49-.39.15-.78.28-1.17.39-.39.12-.855.24-1.395.375-.313.074-.54.12-.684.135-.076 0-.15-.015-.195-.045-.146-.09-.24-.21-.285-.39l-.21-.99c-.554.84-1.2 1.5-1.935 1.995-.73.48-1.528.75-2.387.795h-.39c-1.248 0-2.25-.375-2.994-1.125-.744-.75-1.116-1.71-1.116-2.88zm4.094-.12c0 .52.113.955.345 1.305.24.345.57.52.99.52.046 0 .106-.007.18-.016.074-.01.13-.02.166-.03.09-.026.18-.05.27-.076.09-.03.15-.064.18-.105.09-.075.175-.135.255-.18.075-.045.135-.09.165-.135.165-.195.255-.54.255-1.005v-1.665c-.48.045-.91.15-1.275.285-.36.135-.645.33-.87.57-.225.24-.39.48-.48.75-.09.27-.135.555-.135.87zm10.005 3.33c.24.135.57.21.99.21.425 0 .81-.075 1.155-.225.346-.15.571-.33.675-.54.036-.09.075-.225.12-.39.045-.18.08-.3.09-.375.016-.074.03-.165.046-.27.015-.12.03-.21.03-.27 0-.06-.06-.135-.18-.225-.12-.09-.27-.105-.435-.06-.135.045-.27.15-.405.315-.135.165-.21.33-.21.495 0 .09-.075.18-.225.27-.15.09-.3.135-.435.135-.135 0-.255-.045-.345-.135-.09-.074-.135-.165-.135-.27 0-.21.09-.404.27-.585.195-.166.435-.315.735-.435.315-.135.63-.21.945-.225.315-.016.585.03.81.135.225.105.404.255.54.45.135.195.195.45.195.75v.466c0 .217-.015.408-.045.573-.03.165-.09.285-.18.36-.09.075-.225.12-.405.12-.18 0-.36.045-.54.12-.18.09-.24.18-.18.285.015.047.045.08.09.105.045.015.09.015.135 0 .06-.03.12-.044.18-.044z"/>
</svg> 