<svg xmlns="http://www.w3.org/2000/svg" viewBox="0 0 24 24" fill="#FF5500">
  <path d="M1.175 12.225c-.051 0-.094.046-.101.1l-.233 2.154.233 2.105c.007.058.05.098.101.098.05 0 .09-.04.099-.098l.255-2.105-.27-2.154c-.009-.06-.04-.1-.09-.1m-.899.828c-.05 0-.091.039-.1.094L0 14.479l.175 1.308c.009.055.05.094.1.094.049 0 .09-.039.1-.094L.55 14.479l-.174-1.327c-.009-.055-.05-.094-.1-.094m1.83-.069c-.061 0-.113.048-.12.108l-.21 2.27.225 2.204c.007.06.059.108.12.108.059 0 .111-.048.119-.108l.259-2.204-.26-2.27c-.007-.06-.059-.108-.119-.108m1.005-.132c-.073 0-.135.057-.142.13L2.72 14.479l.25 2.188c.007.073.069.13.142.13.072 0 .134-.057.142-.13l.283-2.188-.283-2.497c-.008-.073-.07-.13-.142-.13m1.031-.244c-.084 0-.156.066-.163.15l-.217 2.591.217 2.509c.007.084.079.15.163.15.083 0 .155-.066.163-.15l.246-2.509-.246-2.591c-.008-.084-.08-.15-.163-.15m2.25-.523c-.108 0-.201.085-.21.193l-.194 3.071.213 2.469c.008.108.101.193.209.193.107 0 .2-.085.209-.193l.24-2.469-.24-3.071c-.009-.108-.102-.193-.21-.193m.795-.011c-.119 0-.221.095-.229.214l-.182 3.061.201 2.469c.008.119.11.214.229.214.118 0 .22-.095.229-.214l.228-2.469-.228-3.061c-.009-.119-.111-.214-.229-.214m.784.043c-.131 0-.243.105-.252.236l-.169 2.996.189 2.469c.009.131.121.236.252.236.131 0 .243-.105.252-.236l.216-2.469-.216-2.996c-.009-.131-.121-.236-.252-.236m1.171.053c-.147 0-.272.115-.281.262l-.155 2.916.177 2.469c.009.147.134.262.281.262.147 0 .272-.115.281-.262l.201-2.469-.201-2.916c-.009-.147-.134-.262-.281-.262m1.634-.138c-.08 0-.15.05-.186.12-.023.045-.035.097-.035.15v4.715c0 .107.073.196.17.22.03.008.063.012.096.012.08 0 .15-.05.186-.12l.258-2.989-.258-2.908c-.036-.07-.105-.12-.186-.12m.469 1.082c-.009-.163-.146-.292-.31-.292-.164 0-.301.129-.31.292l-.144 2.907.168 2.469c.008.164.146.292.31.292.164 0 .301-.128.31-.292l.185-2.469-.185-2.907m.819-1.082v4.714c0 .108.074.197.171.221.03.007.064.011.096.011.08 0 .15-.05.187-.12l.285-2.989-.285-2.907c-.037-.07-.107-.12-.187-.12-.08 0-.15.05-.186.12-.023.045-.036.097-.036.15m2.842-2.169c-.188 0-.347.149-.357.337L12.8 13.001l.252 3.473c.011.187.169.336.357.336.188 0 .347-.149.357-.336l.27-3.473-.27-2.682c-.01-.187-.169-.336-.357-.336m0-1.294c-.188 0-.347.149-.357.337l-.235 3.977.252 3.473c.011.187.169.337.357.337.188 0 .347-.15.357-.337l.27-3.473-.27-3.977c-.01-.187-.169-.337-.357-.337m0-1.381c-.188 0-.347.149-.357.337l-.235 5.358.252 3.473c.011.187.169.337.357.337.188 0 .347-.15.357-.337l.27-3.473-.27-5.358c-.01-.187-.169-.337-.357-.337m5.028 2.864l-.213 2.473.213 2.469c.009.182.165.327.347.327.182 0 .338-.145.347-.327l.235-2.469-.235-2.473c-.009-.182-.165-.327-.347-.327-.182 0-.338.145-.347.327m-1.433.031l-.225 2.442.225 2.469c.011.172.156.308.328.308.172 0 .317-.136.328-.308l.254-2.469-.254-2.442c-.011-.172-.156-.308-.328-.308-.172 0-.317.136-.328.308m-5.039 1.038l-.187 1.404.187 1.404c.01.142.13.255.271.255.142 0 .261-.113.271-.255l.21-1.404-.21-1.404c-.01-.142-.13-.255-.271-.255-.142 0-.261.113-.271.255"/>
</svg> 